{
  "source": "C:\\Users\\Peter\\Desktop\\stuff\\MIUN\\quantitative_research\\video_compression\\videos\\UVG\\YachtRide_1920x1080_120fps_420_8bit_YUV.y4m",
  "output": "C:\\Users\\Peter\\Desktop\\stuff\\MIUN\\quantitative_research\\video_compression\\compressed_videos\\UVG\\h264\\8\\YachtRide_1920x1080_120fps_420_8bit_YUV_h264.mp4",
  "codec": "h264",
  "ok": "[yuv4mpegpipe @ 000001b6aa236600] Stream #0: not enough frames to estimate rate; consider increasing probesize\nInput #0, yuv4mpegpipe, from 'C:\\Users\\Peter\\Desktop\\stuff\\MIUN\\quantitative_research\\video_compression\\videos\\UVG\\YachtRide_1920x1080_120fps_420_8bit_YUV.y4m':\n  Duration: 00:00:05.00, start: 0.000000, bitrate: 2985989 kb/s\n  Stream #0:0: Video: rawvideo (I420 / 0x30323449), yuv420p(progressive), 1920x1080, 120 fps, 120 tbr, 120 tbn\n[out#0/mp4 @ 000001b6aa23a240] Codec AVOption b:a (set bitrate (in bits/s)) has not been used for any stream. The most likely reason is either wrong type (e.g. a video option with no video streams) or that it is a private option of some decoder which was not actually used for any stream.\nStream mapping:\n  Stream #0:0 -> #0:0 (rawvideo (native) -> h264 (libx264))\nPress [q] to stop, [?] for help\n[libx264 @ 000001b6aa23ca80] using cpu capabilities: MMX2 SSE2Fast SSSE3 SSE4.2 AVX FMA3 BMI2 AVX2\n[libx264 @ 000001b6aa23ca80] profile High, level 5.1, 4:2:0, 8-bit\n[libx264 @ 000001b6aa23ca80] 264 - core 165 r3222 b35605a - H.264/MPEG-4 AVC codec - Copyleft 2003-2025 - http://www.videolan.org/x264.html - options: cabac=1 ref=5 deblock=1:0:0 analyse=0x3:0x113 me=hex subme=8 psy=1 psy_rd=1.00:0.00 mixed_ref=1 me_range=16 chroma_me=1 trellis=2 8x8dct=1 cqm=0 deadzone=21,11 fast_pskip=1 chroma_qp_offset=-2 threads=18 lookahead_threads=3 sliced_threads=0 nr=0 decimate=1 interlaced=0 bluray_compat=0 constrained_intra=0 bframes=3 b_pyramid=2 b_adapt=1 b_bias=0 direct=3 weightb=1 open_gop=0 weightp=2 keyint=250 keyint_min=25 scenecut=40 intra_refresh=0 rc_lookahead=50 rc=cbr mbtree=1 bitrate=8000 ratetol=1.0 qcomp=0.60 qpmin=0 qpmax=69 qpstep=4 vbv_maxrate=8000 vbv_bufsize=8000 nal_hrd=none filler=0 ip_ratio=1.40 aq=1:1.00\nOutput #0, mp4, to 'C:\\Users\\Peter\\Desktop\\stuff\\MIUN\\quantitative_research\\video_compression\\compressed_videos\\UVG\\h264\\8\\YachtRide_1920x1080_120fps_420_8bit_YUV_h264.mp4':\n  Metadata:\n    encoder         : Lavf62.3.100\n  Stream #0:0: Video: h264 (avc1 / 0x31637661), yuv420p(tv, progressive), 1920x1080, q=2-31, 8000 kb/s, 120 fps, 15360 tbn\n    Metadata:\n      encoder         : Lavc62.11.100 libx264\n    Side data:\n      cpb: bitrate max/min/avg: 8000000/0/8000000 buffer size: 8000000 vbv_delay: N/A\nframe=    0 fps=0.0 q=0.0 size=       0KiB time=N/A bitrate=N/A speed=N/A elapsed=0:00:00.51    \nframe=    0 fps=0.0 q=0.0 size=       0KiB time=N/A bitrate=N/A speed=N/A elapsed=0:00:01.03    \nframe=   18 fps= 11 q=38.0 size=       0KiB time=00:00:00.12 bitrate=   3.1kbits/s speed=0.0774x elapsed=0:00:01.61    \nframe=   41 fps= 19 q=38.0 size=     256KiB time=00:00:00.32 bitrate=6454.0kbits/s speed=0.148x elapsed=0:00:02.20    \nframe=   65 fps= 24 q=38.0 size=     256KiB time=00:00:00.50 bitrate=4195.1kbits/s speed=0.182x elapsed=0:00:02.74    \nframe=   88 fps= 27 q=38.0 size=     512KiB time=00:00:00.71 bitrate=5853.1kbits/s speed=0.217x elapsed=0:00:03.30    \nframe=  113 fps= 29 q=38.0 size=     768KiB time=00:00:00.91 bitrate=6863.8kbits/s speed=0.239x elapsed=0:00:03.84    \nframe=  134 fps= 30 q=38.0 size=    1024KiB time=00:00:01.08 bitrate=7743.7kbits/s speed=0.244x elapsed=0:00:04.43    \nframe=  153 fps= 30 q=38.0 size=    1024KiB time=00:00:01.25 bitrate=6666.8kbits/s speed=0.249x elapsed=0:00:05.04    \nframe=  176 fps= 31 q=38.0 size=    1280KiB time=00:00:01.43 bitrate=7315.9kbits/s speed=0.255x elapsed=0:00:05.61    \nframe=  201 fps= 32 q=39.0 size=    1536KiB time=00:00:01.62 bitrate=7743.6kbits/s speed=0.262x elapsed=0:00:06.20    \nframe=  218 fps= 32 q=39.0 size=    1536KiB time=00:00:01.79 bitrate=7023.2kbits/s speed=0.264x elapsed=0:00:06.77    \nframe=  233 fps= 32 q=39.0 size=    1792KiB time=00:00:01.92 bitrate=7626.2kbits/s speed=0.264x elapsed=0:00:07.29    \nframe=  250 fps= 32 q=39.0 size=    2048KiB time=00:00:02.03 bitrate=8251.3kbits/s speed=0.258x elapsed=0:00:07.87    \nframe=  270 fps= 32 q=39.0 size=    2048KiB time=00:00:02.20 bitrate=7597.4kbits/s speed=0.262x elapsed=0:00:08.43    \nframe=  289 fps= 32 q=39.0 size=    2304KiB time=00:00:02.37 bitrate=7947.3kbits/s speed=0.264x elapsed=0:00:09.00    \nframe=  307 fps= 32 q=39.0 size=    2560KiB time=00:00:02.54 bitrate=8251.2kbits/s speed=0.266x elapsed=0:00:09.57    \nframe=  335 fps= 33 q=39.0 size=    2816KiB time=00:00:02.77 bitrate=8313.2kbits/s speed=0.273x elapsed=0:00:10.15    \nframe=  355 fps= 33 q=39.0 size=    2816KiB time=00:00:02.94 bitrate=7842.2kbits/s speed=0.275x elapsed=0:00:10.68    \nframe=  371 fps= 33 q=39.0 size=    3072KiB time=00:00:03.07 bitrate=8184.1kbits/s speed=0.274x elapsed=0:00:11.24    \nframe=  391 fps= 33 q=39.0 size=    3328KiB time=00:00:03.24 bitrate=8410.3kbits/s speed=0.275x elapsed=0:00:11.77    \nframe=  414 fps= 34 q=39.0 size=    3328KiB time=00:00:03.43 bitrate=7940.8kbits/s speed=0.279x elapsed=0:00:12.32    \nframe=  427 fps= 33 q=39.0 size=    3584KiB time=00:00:03.54 bitrate=8290.0kbits/s speed=0.276x elapsed=0:00:12.84    \nframe=  447 fps= 33 q=40.0 size=    3840KiB time=00:00:03.70 bitrate=8483.0kbits/s speed=0.276x elapsed=0:00:13.42    \nframe=  463 fps= 33 q=40.0 size=    3840KiB time=00:00:03.84 bitrate=8188.5kbits/s speed=0.275x elapsed=0:00:13.97    \nframe=  483 fps= 33 q=40.0 size=    4096KiB time=00:00:04.00 bitrate=8371.3kbits/s speed=0.276x elapsed=0:00:14.52    \nframe=  500 fps= 33 q=40.0 size=    4096KiB time=00:00:04.15 bitrate=8085.5kbits/s speed=0.275x elapsed=0:00:15.07    \nframe=  522 fps= 33 q=40.0 size=    4352KiB time=00:00:04.33 bitrate=8227.4kbits/s speed=0.277x elapsed=0:00:15.63    \nframe=  546 fps= 34 q=40.0 size=    4608KiB time=00:00:04.50 bitrate=8388.7kbits/s speed=0.277x elapsed=0:00:16.24    \nframe=  565 fps= 34 q=40.0 size=    4864KiB time=00:00:04.69 bitrate=8493.0kbits/s speed=0.279x elapsed=0:00:16.80    \nframe=  589 fps= 34 q=-1.0 size=    4864KiB time=00:00:04.85 bitrate=8201.6kbits/s speed=0.28x elapsed=0:00:17.34    \n[mp4 @ 000001b6aa23a340] Starting second pass: moving the moov atom to the beginning of the file\n[out#0/mp4 @ 000001b6aa23a240] video:5195KiB audio:0KiB subtitle:0KiB other streams:0KiB global headers:0KiB muxing overhead: 0.152479%\nframe=  600 fps= 34 q=-1.0 Lsize=    5203KiB time=00:00:04.98 bitrate=8552.6kbits/s speed=0.283x elapsed=0:00:17.62    \n[libx264 @ 000001b6aa23ca80] frame I:3     Avg QP:33.24  size: 46162\n[libx264 @ 000001b6aa23ca80] frame P:151   Avg QP:36.25  size: 18458\n[libx264 @ 000001b6aa23ca80] frame B:446   Avg QP:39.53  size:  5366\n[libx264 @ 000001b6aa23ca80] consecutive B-frames:  0.8%  0.0%  0.5% 98.7%\n[libx264 @ 000001b6aa23ca80] mb I  I16..4: 29.1% 63.6%  7.3%\n[libx264 @ 000001b6aa23ca80] mb P  I16..4:  0.9%  2.5%  0.1%  P16..4: 39.1%  8.3%  5.0%  0.0%  0.0%    skip:44.0%\n[libx264 @ 000001b6aa23ca80] mb B  I16..4:  0.0%  0.0%  0.0%  B16..8: 40.3%  1.9%  0.2%  direct: 0.9%  skip:56.6%  L0:38.0% L1:60.6% BI: 1.5%\n[libx264 @ 000001b6aa23ca80] 8x8 transform intra:69.0% inter:78.8%\n[libx264 @ 000001b6aa23ca80] direct mvs  spatial:97.8% temporal:2.2%\n[libx264 @ 000001b6aa23ca80] coded y,uvDC,uvAC intra: 47.8% 25.7% 4.2% inter: 6.0% 1.9% 0.0%\n[libx264 @ 000001b6aa23ca80] i16 v,h,dc,p: 13% 63%  6% 18%\n[libx264 @ 000001b6aa23ca80] i8 v,h,dc,ddl,ddr,vr,hd,vl,hu:  4% 15%  9%  6% 13%  7% 21%  6% 21%\n[libx264 @ 000001b6aa23ca80] i4 v,h,dc,ddl,ddr,vr,hd,vl,hu:  3% 19%  6%  5% 10%  7% 18%  6% 25%\n[libx264 @ 000001b6aa23ca80] i8c dc,h,v,p: 37% 54%  7%  3%\n[libx264 @ 000001b6aa23ca80] Weighted P-Frames: Y:0.0% UV:0.0%\n[libx264 @ 000001b6aa23ca80] ref P L0: 54.9% 11.5% 20.9%  6.1%  6.6%\n[libx264 @ 000001b6aa23ca80] ref B L0: 88.5%  8.6%  2.2%  0.7%\n[libx264 @ 000001b6aa23ca80] ref B L1: 97.0%  3.0%\n[libx264 @ 000001b6aa23ca80] kb/s:8509.86\n",
  "seconds": 17.80706763267517,
  "probe_out": {}
}